<?xml version="1.0" encoding="UTF-8"?>
<svg version="1.1" xmlns="http://www.w3.org/2000/svg" width="512" height="512">
<path d="M0 0 C1.2290872 -0.00307895 1.2290872 -0.00307895 2.48300445 -0.0062201 C5.24636609 -0.01190351 8.00967811 -0.0104312 10.77304459 -0.00901413 C12.76719923 -0.01159699 14.76135335 -0.01460993 16.75550675 -0.01801753 C22.24938876 -0.02609998 27.7432577 -0.02787779 33.23714495 -0.028615 C39.15685026 -0.03046338 45.07654876 -0.0380096 50.99625015 -0.04475021 C64.62201844 -0.05905164 78.24778573 -0.06486112 91.87355996 -0.06944216 C98.60610314 -0.07177776 105.33864547 -0.07538037 112.07118798 -0.07913754 C135.11501339 -0.09197296 158.15883833 -0.10269239 181.20266724 -0.10614014 C182.64930447 -0.10636177 184.09594171 -0.10658355 185.54257895 -0.10680549 C186.9927191 -0.10702613 188.44285926 -0.10724661 189.89299941 -0.10746694 C192.80225356 -0.10790949 195.71150772 -0.10835661 198.62076187 -0.10880661 C199.34208812 -0.108916 200.06341436 -0.10902539 200.80659898 -0.1091381 C224.19883859 -0.11276922 247.59104723 -0.12869141 270.98327498 -0.15199697 C295.71197532 -0.17658904 320.44065796 -0.19031268 345.16937089 -0.19150805 C347.88357815 -0.19167951 350.5977854 -0.19189494 353.31199265 -0.19214249 C353.98031209 -0.19219826 354.64863154 -0.19225402 355.33720309 -0.19231148 C365.42912878 -0.19339116 375.5210258 -0.202703 385.61294174 -0.21632767 C397.09116559 -0.23170833 408.56933634 -0.23686112 420.04756853 -0.22858956 C425.90569825 -0.22467592 431.76372098 -0.22564753 437.62183762 -0.23964691 C442.98345136 -0.25234282 448.34487722 -0.25122625 453.70649055 -0.2390562 C455.64728288 -0.23709172 457.58808833 -0.2402121 459.52886221 -0.24890056 C462.16591369 -0.25995972 464.80229819 -0.25252813 467.43933105 -0.24050903 C468.19367475 -0.24810423 468.94801844 -0.25569942 469.72522104 -0.26352477 C475.35480116 -0.20809368 481.26176494 0.6224277 485.53933798 4.58334403 C488.96861336 8.61627248 490.09567685 11.01604623 490.10556889 16.20214844 C490.11002673 17.28228297 490.11448457 18.3624175 490.1190775 19.47528338 C490.11880096 21.26969674 490.11880096 21.26969674 490.11851883 23.10036087 C490.12219552 24.36373756 490.12587221 25.62711424 490.12966031 26.92877507 C490.13969652 30.44716215 490.1433997 33.96553217 490.14604962 37.48393154 C490.14994788 41.27410167 490.15952655 45.06425823 490.16826248 48.85441971 C490.18804057 58.01349795 490.19809486 67.17257733 490.20699027 76.3316716 C490.21137102 80.64243955 490.21673839 84.95320626 490.22197914 89.26397324 C490.23899286 103.58989965 490.25348766 117.91582529 490.26072788 132.24176025 C490.26263785 135.96084214 490.26455817 139.67992402 490.26651382 143.39900589 C490.26699756 144.3233916 490.2674813 145.24777732 490.2679797 146.20017472 C490.2762823 161.1789742 490.30162244 176.15769387 490.3340945 191.13645849 C490.36714479 206.50698106 490.38517481 221.87746306 490.38837212 237.24802136 C490.39053912 245.88121185 490.39931541 254.51428596 490.4248333 263.14744186 C490.44651261 270.49902706 490.45460443 277.85046764 490.44486652 285.20208117 C490.4403137 288.95374511 490.44226453 292.70511049 490.46162796 296.4567337 C490.48243372 300.52288719 490.47230053 304.58837506 490.459095 308.65456009 C490.47554887 310.43558911 490.47554887 310.43558911 490.49233514 312.25259852 C490.44310709 318.50910559 490.26419786 322.42519497 485.97134781 327.13142776 C479.88781619 331.82081672 475.4419618 332.28023093 467.94269562 332.26285553 C467.12330415 332.26490816 466.30391268 332.2669608 465.45969117 332.26907563 C462.69632952 332.27475904 459.93301751 332.27328673 457.16965103 332.27186966 C455.17549639 332.27445252 453.18134227 332.27746546 451.18718886 332.28087306 C445.69330686 332.28895551 440.19943791 332.29073332 434.70555067 332.29147053 C428.78584536 332.29331891 422.86614685 332.30086513 416.94644547 332.30760574 C403.32067718 332.32190717 389.69490989 332.32771665 376.06913566 332.33229769 C369.33659248 332.33463329 362.60405015 332.3382359 355.87150764 332.34199307 C332.82768223 332.35482849 309.78385729 332.36554792 286.74002838 332.36899567 C285.29339114 332.3692173 283.84675391 332.36943908 282.40011667 332.36966102 C280.94997651 332.36988166 279.49983636 332.37010214 278.04969621 332.37032247 C275.14044205 332.37076502 272.2311879 332.37121213 269.32193375 332.37166214 C268.6006075 332.37177153 267.87928125 332.37188092 267.13609664 332.37199363 C243.74385702 332.37562475 220.35164839 332.39154694 196.95942064 332.4148525 C172.23072029 332.43944457 147.50203766 332.45316821 122.77332473 332.45436358 C120.05911747 332.45453504 117.34491022 332.45475047 114.63070297 332.45499802 C113.6282238 332.45508167 113.6282238 332.45508167 112.60549253 332.45516701 C102.51356683 332.45624669 92.42166981 332.46555853 82.32975388 332.4791832 C70.85153003 332.49456386 59.37335928 332.49971665 47.89512709 332.49144509 C42.03699736 332.48753145 36.17897464 332.48850306 30.320858 332.50250244 C24.95924426 332.51519835 19.5978184 332.51408178 14.23620507 332.50191173 C12.29541274 332.49994725 10.35460729 332.50306763 8.41383341 332.51175609 C5.77678193 332.52281525 3.14039743 332.51538366 0.50336456 332.50336456 C-0.62815098 332.51475735 -0.62815098 332.51475735 -1.78252542 332.5263803 C-7.41210554 332.47094921 -13.31906932 331.64042783 -17.59664236 327.6795115 C-21.02591774 323.64658305 -22.15298123 321.2468093 -22.16287327 316.06070709 C-22.16733111 314.98057256 -22.17178896 313.90043803 -22.17638189 312.78757215 C-22.17619752 311.59129658 -22.17601316 310.395021 -22.17582321 309.16249466 C-22.1794999 307.89911797 -22.18317659 306.63574129 -22.18696469 305.33408046 C-22.19700091 301.81569338 -22.20070408 298.29732336 -22.203354 294.77892399 C-22.20725226 290.98875386 -22.21683093 287.1985973 -22.22556686 283.40843582 C-22.24534495 274.24935758 -22.25539924 265.0902782 -22.26429465 255.93118393 C-22.26867541 251.62041598 -22.27404277 247.30964927 -22.27928352 242.99888229 C-22.29629725 228.67295588 -22.31079204 214.34703024 -22.31803226 200.02109528 C-22.31994223 196.30201339 -22.32186255 192.5829315 -22.32381821 188.86384964 C-22.32430195 187.93946393 -22.32478569 187.01507821 -22.32528409 186.06268081 C-22.33358668 171.08388133 -22.35892682 156.10516166 -22.39139888 141.12639704 C-22.42444917 125.75587447 -22.44247919 110.38539247 -22.44567651 95.01483417 C-22.4478435 86.38164368 -22.45661979 77.74856957 -22.48213768 69.11541367 C-22.50381699 61.76382847 -22.51190881 54.41238789 -22.5021709 47.06077436 C-22.49761808 43.30911042 -22.49956891 39.55774504 -22.51893234 35.80612183 C-22.53973811 31.73996834 -22.52960491 27.67448047 -22.51639938 23.60829544 C-22.52736863 22.42094276 -22.53833788 21.23359007 -22.54963952 20.01025701 C-22.50041147 13.75374994 -22.32150224 9.83766056 -18.02865219 5.13142776 C-11.94512058 0.44203881 -7.49926618 -0.0173754 0 0 Z " fill="#E4646E" transform="translate(22.02865219116211,89.86857223510742)"/>
<path d="M0 0 C0.87881309 -0.00199105 1.75762618 -0.0039821 2.66306996 -0.00603348 C3.62415567 -0.00312064 4.58524138 -0.0002078 5.5754509 0.00279331 C6.59975669 0.00193889 7.62406248 0.00108446 8.67940784 0.00020415 C12.12188496 -0.00144687 15.56431368 0.00406459 19.00678635 0.00952244 C21.47039921 0.00980442 23.93401216 0.00964637 26.39762497 0.00907993 C31.70687867 0.00885199 37.01611722 0.0116939 42.32536697 0.01731777 C50.00165615 0.02544365 57.67793939 0.02804911 65.3542324 0.02930576 C77.8084074 0.03149457 90.26257584 0.03815002 102.71674728 0.04760838 C114.81505425 0.05678692 126.91335942 0.06385413 139.01166916 0.06811619 C139.76497293 0.06838419 140.51827669 0.06865218 141.29440784 0.0689283 C147.18570897 0.07100771 153.07701013 0.07296464 158.96831131 0.07488286 C187.84670223 0.08431711 216.72507675 0.10443529 245.60346603 0.12304783 C245.60346603 62.82304783 245.60346603 125.52304783 245.60346603 190.12304783 C158.48346603 190.12304783 71.36346603 190.12304783 -18.39653397 190.12304783 C-18.47903397 160.71179783 -18.56153397 131.30054783 -18.64653397 100.99804783 C-18.68294998 91.70761326 -18.719366 82.41717869 -18.75688553 72.8452158 C-18.77495193 61.51001072 -18.77495193 61.51001072 -18.77830887 56.20535374 C-18.78203907 52.49635361 -18.79704296 48.78758194 -18.81883621 45.07864475 C-18.84626522 40.3479342 -18.85450009 35.61755604 -18.84882307 30.88677335 C-18.85001022 29.15042424 -18.85794685 27.41406357 -18.87339449 25.67778277 C-18.89330016 23.3314708 -18.88849286 20.98644895 -18.87755203 18.64010715 C-18.8812392 17.32563036 -18.88492638 16.01115356 -18.88872528 14.65684414 C-18.1234782 9.16258363 -15.72209473 6.14483425 -11.39653397 2.81054783 C-7.47965743 0.60730478 -4.45637043 -0.00223265 0 0 Z " fill="#5155A0" transform="translate(18.396533966064453,89.87695217132568)"/>
<path d="M0 0 C168.96 0 337.92 0 512 0 C512 37 512 37 508 43 C501.91646839 47.68938895 497.47061399 48.14880316 489.97134781 48.13142776 C488.74226061 48.13450672 488.74226061 48.13450672 487.48834336 48.13764787 C484.72498171 48.14333127 481.9616697 48.14185896 479.19830322 48.14044189 C477.20414858 48.14302476 475.20999446 48.1460377 473.21584105 48.1494453 C467.72195905 48.15752774 462.22809011 48.15930556 456.73420286 48.16004276 C450.81449755 48.16189114 444.89479904 48.16943737 438.97509766 48.17617798 C425.34932937 48.1904794 411.72356208 48.19628888 398.09778785 48.20086992 C391.36524467 48.20320553 384.63270234 48.20680813 377.90015983 48.2105653 C354.85633442 48.22340072 331.81250948 48.23412015 308.76868057 48.2375679 C307.32204333 48.23778953 305.8754061 48.23801132 304.42876886 48.23823325 C302.9786287 48.23845389 301.52848855 48.23867438 300.0783484 48.2388947 C297.16909424 48.23933726 294.25984009 48.23978437 291.35058594 48.24023438 C290.62925969 48.24034377 289.90793345 48.24045316 289.16474883 48.24056586 C265.77250921 48.24419699 242.38030058 48.26011917 218.98807283 48.28342474 C194.25937249 48.30801681 169.53068985 48.32174044 144.80197692 48.32293582 C142.08776966 48.32310728 139.37356241 48.3233227 136.65935516 48.32357025 C135.65687599 48.3236539 135.65687599 48.3236539 134.63414472 48.32373925 C124.54221902 48.32481892 114.45032201 48.33413077 104.35840607 48.34775543 C92.88018222 48.3631361 81.40201147 48.36828889 69.92377928 48.36001733 C64.06564955 48.35610369 58.20762683 48.35707529 52.34951019 48.37107468 C46.98789645 48.38377059 41.62647059 48.38265401 36.26485726 48.37048396 C34.32406493 48.36851949 32.38325948 48.37163986 30.4424856 48.38032833 C27.80543412 48.39138749 25.16904962 48.3839559 22.53201675 48.3719368 C21.77767306 48.37953199 21.02332937 48.38712718 20.24612677 48.39495254 C14.61654665 48.33952145 8.70958287 47.50900007 4.43200983 43.54808374 C-6.59650554 30.57822613 0 23.45113766 0 0 Z " fill="#E4636D" transform="translate(0,374)"/>
<path d="M0 0 C168.96 0 337.92 0 512 0 C512 15.51 512 31.02 512 47 C343.04 47 174.08 47 0 47 C0 31.49 0 15.98 0 0 Z " fill="#F1F1F5" transform="translate(0,327)"/>
<path d="M0 0 C168.96 0 337.92 0 512 0 C512 15.51 512 31.02 512 47 C343.04 47 174.08 47 0 47 C0 31.49 0 15.98 0 0 Z " fill="#E5646E" transform="translate(0,280)"/>
<path d="M0 0 C81.84 0 163.68 0 248 0 C248 15.84 248 31.68 248 48 C166.16 48 84.32 48 0 48 C0 32.16 0 16.32 0 0 Z " fill="#F1EFF3" transform="translate(264,232)"/>
<path d="M0 0 C29.67403905 -0.06615793 59.34803517 -0.12154214 89.02212861 -0.15319599 C92.52679681 -0.15694803 96.03146485 -0.16083101 99.53613281 -0.16479492 C100.58269087 -0.16597532 100.58269087 -0.16597532 101.65039152 -0.16717956 C112.94203309 -0.18022735 124.23362875 -0.20387772 135.5252431 -0.23145839 C147.11468703 -0.25953007 158.70410421 -0.27595549 170.29358053 -0.28226548 C176.80187068 -0.28617733 183.31005678 -0.29537505 189.8183136 -0.31719017 C195.94464807 -0.33755867 202.07083566 -0.34383298 208.19720078 -0.33932304 C210.44497857 -0.34014807 212.6927613 -0.34611143 214.9405098 -0.35761642 C218.01199278 -0.37256594 221.08292288 -0.36894434 224.15441895 -0.36076355 C225.4851877 -0.37387134 225.4851877 -0.37387134 226.84284067 -0.38724393 C232.79981543 -0.344428 238.97727854 0.19176829 243.56285906 4.45195991 C254.60499416 17.38901186 248 24.68442079 248 48 C166.16 48 84.32 48 0 48 C0 32.16 0 16.32 0 0 Z " fill="#E4636E" transform="translate(264,90)"/>
<path d="M0 0 C81.84 0 163.68 0 248 0 C248 15.51 248 31.02 248 47 C166.16 47 84.32 47 0 47 C0 31.49 0 15.98 0 0 Z " fill="#F1F1F5" transform="translate(264,138)"/>
<path d="M0 0 C13.68221536 -1.3846828 13.68221536 -1.3846828 20 0 C23.78306707 3.13192751 25.12841719 6.55499083 27 11 C33.94243309 20.60183286 45.49001414 27.13004867 56.99282253 29.58194613 C64.01087574 30.55758668 71.16924125 30.28706323 78.24195862 30.2784729 C80.11413833 30.28347889 81.98631588 30.28935557 83.85849041 30.29602563 C88.99167874 30.31180291 94.1248123 30.31525507 99.25802195 30.31667423 C104.79780864 30.32037223 110.33756542 30.33552973 115.87733459 30.34928894 C125.47159575 30.37155298 135.06584625 30.38657143 144.66012764 30.39665604 C158.53181191 30.41124714 172.40345907 30.43678522 186.27512156 30.46498732 C208.78146788 30.51044743 231.28781969 30.54708252 253.79418945 30.578125 C275.65585265 30.60829931 297.51750282 30.64264265 319.37915039 30.68261719 C320.05327993 30.68384819 320.72740946 30.68507919 321.42196717 30.6863475 C328.1919875 30.69871459 334.96200767 30.71116629 341.73202773 30.72367998 C398.48800014 30.82857969 455.24398846 30.91921185 512 31 C512.1949987 36.38496399 511.49021841 38.77499877 508 43 C501.91646839 47.68938895 497.47061399 48.14880316 489.97134781 48.13142776 C488.74226061 48.13450672 488.74226061 48.13450672 487.48834336 48.13764787 C484.72498171 48.14333127 481.9616697 48.14185896 479.19830322 48.14044189 C477.20414858 48.14302476 475.20999446 48.1460377 473.21584105 48.1494453 C467.72195905 48.15752774 462.22809011 48.15930556 456.73420286 48.16004276 C450.81449755 48.16189114 444.89479904 48.16943737 438.97509766 48.17617798 C425.34932937 48.1904794 411.72356208 48.19628888 398.09778785 48.20086992 C391.36524467 48.20320553 384.63270234 48.20680813 377.90015983 48.2105653 C354.85633442 48.22340072 331.81250948 48.23412015 308.76868057 48.2375679 C307.32204333 48.23778953 305.8754061 48.23801132 304.42876886 48.23823325 C302.9786287 48.23845389 301.52848855 48.23867438 300.0783484 48.2388947 C297.16909424 48.23933726 294.25984009 48.23978437 291.35058594 48.24023438 C290.62925969 48.24034377 289.90793345 48.24045316 289.16474883 48.24056586 C265.77250921 48.24419699 242.38030058 48.26011917 218.98807283 48.28342474 C194.25937249 48.30801681 169.53068985 48.32174044 144.80197692 48.32293582 C142.08776966 48.32310728 139.37356241 48.3233227 136.65935516 48.32357025 C135.65687599 48.3236539 135.65687599 48.3236539 134.63414472 48.32373925 C124.54221902 48.32481892 114.45032201 48.33413077 104.35840607 48.34775543 C92.88018222 48.3631361 81.40201147 48.36828889 69.92377928 48.36001733 C64.06564955 48.35610369 58.20762683 48.35707529 52.34951019 48.37107468 C46.98789645 48.38377059 41.62647059 48.38265401 36.26485726 48.37048396 C34.32406493 48.36851949 32.38325948 48.37163986 30.4424856 48.38032833 C27.80543412 48.39138749 25.16904962 48.3839559 22.53201675 48.3719368 C21.77767306 48.37953199 21.02332937 48.38712718 20.24612677 48.39495254 C14.61654665 48.33952145 8.70958287 47.50900007 4.43200983 43.54808374 C0.14033188 38.50094457 -0.13901949 35.11428985 -0.09765625 28.7109375 C-0.0962413 27.89251373 -0.09482635 27.07408997 -0.09336853 26.23086548 C-0.0877629 23.61220675 -0.07520948 20.99363296 -0.0625 18.375 C-0.05748572 16.60156373 -0.05292269 14.82812613 -0.04882812 13.0546875 C-0.03779164 8.70309218 -0.02052325 4.3515605 0 0 Z " fill="#DA4554" transform="translate(0,374)"/>
<path d="M0 0 C0 62.37 0 124.74 0 189 C-5.61 189 -11.22 189 -17 189 C-17.09258281 165.89534076 -17.16397175 142.79072618 -17.20724869 119.68591881 C-17.22787673 108.95802878 -17.25600204 98.23025611 -17.30175781 87.50244141 C-17.34161806 78.15242581 -17.36743105 68.80249519 -17.37635398 59.45239699 C-17.38157008 54.50124252 -17.39383498 49.55033118 -17.42292023 44.59925461 C-17.45007643 39.93878021 -17.45844456 35.27864903 -17.45243073 30.61810303 C-17.45353087 28.90806844 -17.46148359 27.19802234 -17.4768219 25.48805618 C-17.49675363 23.1513154 -17.49192844 20.81586676 -17.48101807 18.47909546 C-17.48470524 17.17199301 -17.48839241 15.86489056 -17.49219131 14.51817894 C-16.72504661 9.03463575 -14.3171563 6.01530798 -10 2.6875 C-6.34179514 0.62975977 -4.15098584 0 0 0 Z " fill="#3F3F8F" transform="translate(17,90)"/>
<path d="M0 0 C5.61 0 11.22 0 17 0 C17.04898437 2.55492187 17.09796875 5.10984375 17.1484375 7.7421875 C17.20262247 10.24777516 17.25986068 12.75327605 17.31738281 15.25878906 C17.3553985 16.98495884 17.39029635 18.71120047 17.421875 20.4375 C17.58969869 29.49997922 17.76767539 38.16144647 20 47 C13.4 47 6.8 47 0 47 C0 31.49 0 15.98 0 0 Z " fill="#E1E1E6" transform="translate(0,327)"/>
<path d="M0 0 C5.28 0 10.56 0 16 0 C16 15.18 16 30.36 16 46 C10.72 46 5.44 46 0 46 C0 30.82 0 15.64 0 0 Z " fill="#DB4655" transform="translate(0,280)"/>
<path d="M0 0 C3 2.0625 3 2.0625 5 5 C5.06944397 8.95830645 4.5699479 11.14507816 2.375 14.4375 C-0.9617771 16.63274809 -3.08548544 16.55921637 -7 16 C-10.26473709 13.85214665 -10.9058033 12.30475404 -12.0625 8.5625 C-12 5 -12 5 -10 2.0625 C-6.24750505 -0.51734028 -4.46801531 -0.79785988 0 0 Z " fill="#EAEBF2" transform="translate(210,194)"/>
<path d="M0 0 C3.74225404 1.1566967 5.28964665 1.79776291 7.4375 5.0625 C8 8.5 8 8.5 7.4375 12.0625 C4.99151113 15.44371991 3.54453441 16.83186783 -0.5625 17.6875 C-4.66953441 16.83186783 -6.11651113 15.44371991 -8.5625 12.0625 C-9.36035988 7.59448469 -9.07984028 5.81499495 -6.5 2.0625 C-3.5625 0.0625 -3.5625 0.0625 0 0 Z " fill="#F7F7FA" transform="translate(33.5625,242.9375)"/>
<path d="M0 0 C3 2.0625 3 2.0625 5 5 C5.06944397 8.95830645 4.5699479 11.14507816 2.375 14.4375 C-0.9617771 16.63274809 -3.08548544 16.55921637 -7 16 C-10.26473709 13.85214665 -10.9058033 12.30475404 -12.0625 8.5625 C-12 5 -12 5 -10 2.0625 C-6.24750505 -0.51734028 -4.46801531 -0.79785988 0 0 Z " fill="#F7F7FB" transform="translate(210,227)"/>
<path d="M0 0 C3.5 0.625 3.5 0.625 6.5 2.6875 C8.5 5.625 8.5 5.625 8.5625 9.1875 C7.4058033 12.92975404 6.76473709 14.47714665 3.5 16.625 C0.0625 17.1875 0.0625 17.1875 -3.5 16.625 C-6.88121991 14.17901113 -8.26936783 12.73203441 -9.125 8.625 C-8.00794016 3.26311277 -5.32967295 0.95172731 0 0 Z " fill="#F7F7FB" transform="translate(107.5,226.375)"/>
<path d="M0 0 C3 2.0625 3 2.0625 5 5 C5.06944397 8.95830645 4.5699479 11.14507816 2.375 14.4375 C-0.9617771 16.63274809 -3.08548544 16.55921637 -7 16 C-10.26473709 13.85214665 -10.9058033 12.30475404 -12.0625 8.5625 C-12 5 -12 5 -10 2.0625 C-6.24750505 -0.51734028 -4.46801531 -0.79785988 0 0 Z " fill="#EBEBF2" transform="translate(111,194)"/>
<path d="M0 0 C4.10703441 0.85563217 5.55401113 2.24378009 8 5.625 C8.63127485 9.62307408 8.67917484 11.63235985 6.375 15 C3.47615008 16.98342363 1.5012527 17.47911447 -2 17.625 C-5.36056696 16.50481101 -5.96356066 15.67965901 -8 12.625 C-8.57061018 8.22315002 -8.50756062 6.32662792 -5.875 2.6875 C-3 0.625 -3 0.625 0 0 Z " fill="#F7F7FB" transform="translate(33,176.375)"/>
<path d="M0 0 C3 2.0625 3 2.0625 5 5 C5.06944397 8.95830645 4.5699479 11.14507816 2.375 14.4375 C-0.9617771 16.63274809 -3.08548544 16.55921637 -7 16 C-10.26473709 13.85214665 -10.9058033 12.30475404 -12.0625 8.5625 C-12 5 -12 5 -10 2.0625 C-6.24750505 -0.51734028 -4.46801531 -0.79785988 0 0 Z " fill="#F7F7FB" transform="translate(210,161)"/>
<path d="M0 0 C3 2.0625 3 2.0625 5 5 C5.06944397 8.95830645 4.5699479 11.14507816 2.375 14.4375 C-0.9617771 16.63274809 -3.08548544 16.55921637 -7 16 C-10.26473709 13.85214665 -10.9058033 12.30475404 -12.0625 8.5625 C-12 5 -12 5 -10 2.0625 C-6.24750505 -0.51734028 -4.46801531 -0.79785988 0 0 Z " fill="#F7F8FB" transform="translate(111,161)"/>
<path d="M0 0 C4.10703441 0.85563217 5.55401113 2.24378009 8 5.625 C8.79785988 10.09301531 8.51734028 11.87250505 5.9375 15.625 C3 17.625 3 17.625 -0.5625 17.6875 C-4.30475404 16.5308033 -5.85214665 15.88973709 -8 12.625 C-8.5625 9.1875 -8.5625 9.1875 -8 5.625 C-5.55401113 2.24378009 -4.10703441 0.85563217 0 0 Z " fill="#EBEBF2" transform="translate(33,143.375)"/>
<path d="M0 0 C3 2.0625 3 2.0625 5 5 C5.06944397 8.95830645 4.5699479 11.14507816 2.375 14.4375 C-0.9617771 16.63274809 -3.08548544 16.55921637 -7 16 C-10.26473709 13.85214665 -10.9058033 12.30475404 -12.0625 8.5625 C-12 5 -12 5 -10 2.0625 C-6.24750505 -0.51734028 -4.46801531 -0.79785988 0 0 Z " fill="#EBEBF2" transform="translate(210,128)"/>
<path d="M0 0 C2.4375 1.6875 2.4375 1.6875 4 4 C4.63924557 7.7555677 4.29008409 9.47784863 2.4375 12.8125 C-0.76996843 15.69099731 -2.7149334 16.07517661 -7 16 C-9.9375 14.625 -9.9375 14.625 -12 12 C-12.7091166 8.85221411 -12.7091166 6.14778589 -12 3 C-8.42324245 -1.55223688 -5.38017918 -1.56514303 0 0 Z " fill="#EBEBF2" transform="translate(186,244)"/>
<path d="M0 0 C2.4375 1.6875 2.4375 1.6875 4 4 C4.63924557 7.7555677 4.29008409 9.47784863 2.4375 12.8125 C-0.76996843 15.69099731 -2.7149334 16.07517661 -7 16 C-9.9375 14.625 -9.9375 14.625 -12 12 C-12.7091166 8.85221411 -12.7091166 6.14778589 -12 3 C-8.42324245 -1.55223688 -5.38017918 -1.56514303 0 0 Z " fill="#EBEBF2" transform="translate(87,244)"/>
<path d="M0 0 C2.4375 1.6875 2.4375 1.6875 4 4 C4.63924557 7.7555677 4.29008409 9.47784863 2.4375 12.8125 C-0.76996843 15.69099731 -2.7149334 16.07517661 -7 16 C-9.9375 14.625 -9.9375 14.625 -12 12 C-12.7091166 8.85221411 -12.7091166 6.14778589 -12 3 C-8.42324245 -1.55223688 -5.38017918 -1.56514303 0 0 Z " fill="#F7F7FB" transform="translate(186,211)"/>
<path d="M0 0 C2.4375 1.6875 2.4375 1.6875 4 4 C4.63924557 7.7555677 4.29008409 9.47784863 2.4375 12.8125 C-0.76996843 15.69099731 -2.7149334 16.07517661 -7 16 C-9.9375 14.625 -9.9375 14.625 -12 12 C-12.7091166 8.85221411 -12.7091166 6.14778589 -12 3 C-8.42324245 -1.55223688 -5.38017918 -1.56514303 0 0 Z " fill="#F7F7FB" transform="translate(87,211)"/>
<path d="M0 0 C3.74225404 1.1566967 5.28964665 1.79776291 7.4375 5.0625 C7.99671637 8.97701456 8.07024809 11.1007229 5.875 14.4375 C2.58257816 16.6324479 0.39580645 17.13194397 -3.5625 17.0625 C-6.5 15.0625 -6.5 15.0625 -8.5625 12.0625 C-9.36035988 7.59448469 -9.07984028 5.81499495 -6.5 2.0625 C-3.5625 0.0625 -3.5625 0.0625 0 0 Z " fill="#EBEBF2" transform="translate(33.5625,209.9375)"/>
<path d="M0 0 C3.8425303 0.72047443 5.45767292 1.57152696 8 4.5625 C8.79601977 9.57742456 8.77842337 11.40665924 5.9375 15.625 C3 17.5625 3 17.5625 -0.5625 17.6875 C-4.64328346 16.35197087 -5.92555322 15.29650421 -8 11.5625 C-8.5625 8.5625 -8.5625 8.5625 -8 5.5625 C-5.53959272 2.23371368 -4.10389613 0.76948052 0 0 Z " fill="#F7F7FB" transform="translate(231,176.4375)"/>
<path d="M0 0 C2.4375 1.6875 2.4375 1.6875 4 4 C4.63924557 7.7555677 4.29008409 9.47784863 2.4375 12.8125 C-0.76996843 15.69099731 -2.7149334 16.07517661 -7 16 C-9.9375 14.625 -9.9375 14.625 -12 12 C-12.7091166 8.85221411 -12.7091166 6.14778589 -12 3 C-8.42324245 -1.55223688 -5.38017918 -1.56514303 0 0 Z " fill="#EBEBF2" transform="translate(186,178)"/>
<path d="M0 0 C2.4375 1.6875 2.4375 1.6875 4 4 C4.63924557 7.7555677 4.29008409 9.47784863 2.4375 12.8125 C-0.76996843 15.69099731 -2.7149334 16.07517661 -7 16 C-9.9375 14.625 -9.9375 14.625 -12 12 C-12.7091166 8.85221411 -12.7091166 6.14778589 -12 3 C-8.42324245 -1.55223688 -5.38017918 -1.56514303 0 0 Z " fill="#EBEBF2" transform="translate(87,178)"/>
<path d="M0 0 C3.8425303 0.72047443 5.45767292 1.57152696 8 4.5625 C8.79601977 9.57742456 8.77842337 11.40665924 5.9375 15.625 C3 17.5625 3 17.5625 -0.5625 17.6875 C-4.64328346 16.35197087 -5.92555322 15.29650421 -8 11.5625 C-8.5625 8.5625 -8.5625 8.5625 -8 5.5625 C-5.53959272 2.23371368 -4.10389613 0.76948052 0 0 Z " fill="#EBEBF2" transform="translate(231,143.4375)"/>
<path d="M0 0 C2.4375 1.6875 2.4375 1.6875 4 4 C4.63924557 7.7555677 4.29008409 9.47784863 2.4375 12.8125 C-0.76996843 15.69099731 -2.7149334 16.07517661 -7 16 C-9.9375 14.625 -9.9375 14.625 -12 12 C-12.7091166 8.85221411 -12.7091166 6.14778589 -12 3 C-8.42324245 -1.55223688 -5.38017918 -1.56514303 0 0 Z " fill="#F7F7FB" transform="translate(186,145)"/>
<path d="M0 0 C3 2.0625 3 2.0625 5 5 C5.06944397 8.95830645 4.5699479 11.14507816 2.375 14.4375 C-0.9617771 16.63274809 -3.08548544 16.55921637 -7 16 C-10.26473709 13.85214665 -10.9058033 12.30475404 -12.0625 8.5625 C-12 5 -12 5 -10 2.0625 C-6.24750505 -0.51734028 -4.46801531 -0.79785988 0 0 Z " fill="#EBEBF2" transform="translate(111,128)"/>
<path d="M0 0 C4.10703441 0.85563217 5.55401113 2.24378009 8 5.625 C8.79785988 10.09301531 8.51734028 11.87250505 5.9375 15.625 C3 17.625 3 17.625 -0.5625 17.75 C-4.64328346 16.41447087 -5.92555322 15.35900421 -8 11.625 C-8.5625 8.625 -8.5625 8.625 -8 5.625 C-5.54405875 2.30225596 -4.0743356 0.84881992 0 0 Z " fill="#F8F8FB" transform="translate(132,110.375)"/>
<path d="M0 0 C2.4375 1.6875 2.4375 1.6875 4 4 C4.63924557 7.7555677 4.29008409 9.47784863 2.4375 12.8125 C-0.76996843 15.69099731 -2.7149334 16.07517661 -7 16 C-9.9375 14.625 -9.9375 14.625 -12 12 C-12.7091166 8.85221411 -12.7091166 6.14778589 -12 3 C-8.42324245 -1.55223688 -5.38017918 -1.56514303 0 0 Z " fill="#EBEBF2" transform="translate(87,112)"/>
<path d="M0 0 C4.10703441 0.85563217 5.55401113 2.24378009 8 5.625 C8.63127485 9.62307408 8.67917484 11.63235985 6.375 15 C3.36878996 17.05688056 1.6623602 17.6982472 -2 17.625 C-5.375 15.625 -5.375 15.625 -8 12.625 C-8.6875 9.125 -8.6875 9.125 -8 5.625 C-5.55401113 2.24378009 -4.10703441 0.85563217 0 0 Z " fill="#F8F8FB" transform="translate(33,110.375)"/>
<path d="M0 0 C1.9375 1.0625 1.9375 1.0625 3 3 C3.63852859 7.9485966 3.74271661 9.89717837 0.9375 14.0625 C-2 16 -2 16 -5.5625 16.125 C-9.64328346 14.78947087 -10.92555322 13.73400421 -13 10 C-13.625 7 -13.625 7 -13 4 C-8.82319948 -0.78803962 -6.3628125 -1.92084906 0 0 Z " fill="#F8F8FB" transform="translate(236,244)"/>
<path d="M0 0 C1.9375 1.0625 1.9375 1.0625 3 3 C3.63852859 7.9485966 3.74271661 9.89717837 0.9375 14.0625 C-2 16 -2 16 -5.5625 16.125 C-9.64328346 14.78947087 -10.92555322 13.73400421 -13 10 C-13.625 7 -13.625 7 -13 4 C-8.82319948 -0.78803962 -6.3628125 -1.92084906 0 0 Z " fill="#EBEBF2" transform="translate(236,211)"/>
<path d="M0 0 C4.10703441 0.85563217 5.55401113 2.24378009 8 5.625 C8.79785988 10.09301531 8.51734028 11.87250505 5.9375 15.625 C3 17.625 3 17.625 -0.5625 17.75 C-4.64328346 16.41447087 -5.92555322 15.35900421 -8 11.625 C-8.5625 8.625 -8.5625 8.625 -8 5.625 C-5.54405875 2.30225596 -4.0743356 0.84881992 0 0 Z " fill="#EBEBF2" transform="translate(132,209.375)"/>
<path d="M0 0 C4.10703441 0.85563217 5.55401113 2.24378009 8 5.625 C8.79785988 10.09301531 8.51734028 11.87250505 5.9375 15.625 C3 17.625 3 17.625 -0.5625 17.75 C-4.64328346 16.41447087 -5.92555322 15.35900421 -8 11.625 C-8.5625 8.625 -8.5625 8.625 -8 5.625 C-5.54405875 2.30225596 -4.0743356 0.84881992 0 0 Z " fill="#F8F8FB" transform="translate(132,176.375)"/>
<path d="M0 0 C4.10703441 0.85563217 5.55401113 2.24378009 8 5.625 C8.79785988 10.09301531 8.51734028 11.87250505 5.9375 15.625 C3 17.625 3 17.625 -0.5625 17.75 C-4.64328346 16.41447087 -5.92555322 15.35900421 -8 11.625 C-8.5625 8.625 -8.5625 8.625 -8 5.625 C-5.54405875 2.30225596 -4.0743356 0.84881992 0 0 Z " fill="#EBECF2" transform="translate(132,143.375)"/>
<path d="M0 0 C2.4375 1.6875 2.4375 1.6875 4 4 C4.63924557 7.7555677 4.29008409 9.47784863 2.4375 12.8125 C-0.78533156 15.70478473 -2.68807302 16.15129568 -7 16 C-9.98747189 14.02953982 -11.61681046 12.57637321 -12.48046875 9.0234375 C-12.73812468 5.30483575 -12.2695866 3.33494092 -9.9375 0.4375 C-6.07364271 -1.45332378 -4.09918272 -1.19248952 0 0 Z " fill="#F8F8FB" transform="translate(87,145)"/>
<path d="M0 0 C3.8425303 0.72047443 5.45767292 1.57152696 8 4.5625 C8.79601977 9.57742456 8.77842337 11.40665924 5.9375 15.625 C3 17.5625 3 17.5625 -0.5625 17.6875 C-4.64328346 16.35197087 -5.92555322 15.29650421 -8 11.5625 C-8.5625 8.5625 -8.5625 8.5625 -8 5.5625 C-5.53959272 2.23371368 -4.10389613 0.76948052 0 0 Z " fill="#F8F8FB" transform="translate(231,110.4375)"/>
<path d="M0 0 C2.4375 1.6875 2.4375 1.6875 4 4 C4.63924557 7.7555677 4.29008409 9.47784863 2.4375 12.8125 C-0.78533156 15.70478473 -2.68807302 16.15129568 -7 16 C-9.98747189 14.02953982 -11.61681046 12.57637321 -12.48046875 9.0234375 C-12.73812468 5.30483575 -12.2695866 3.33494092 -9.9375 0.4375 C-6.07364271 -1.45332378 -4.09918272 -1.19248952 0 0 Z " fill="#EBEBF2" transform="translate(186,112)"/>
<path d="M0 0 C2.78251058 2.33371855 2.97502272 3.82828118 3.5 7.4375 C3 11 3 11 0.9375 14 C-2 16 -2 16 -5.5625 16.125 C-9.64328346 14.78947087 -10.92555322 13.73400421 -13 10 C-13.625 7 -13.625 7 -13 4 C-8.85936092 -0.74658626 -6.31222875 -2.02467715 0 0 Z " fill="#F8F8FB" transform="translate(137,244)"/>
<path d="M0 0 C2.9375 1.5625 2.9375 1.5625 5 4 C5.625 7.4375 5.625 7.4375 5 11 C2.9375 13.9375 2.9375 13.9375 0 16 C-3.95779649 16.62491523 -6.00863886 16.61006839 -9.4375 14.5 C-11.63828902 10.97873756 -11.80414661 8.04560357 -11 4 C-8.1553332 -0.55146687 -5.11689336 -0.71816047 0 0 Z " fill="#FAFAFC" transform="translate(160,128)"/>
<path d="M0 0 C2.9375 1.5625 2.9375 1.5625 5 4 C5.625 7.4375 5.625 7.4375 5 11 C2.9375 13.9375 2.9375 13.9375 0 16 C-3.95779649 16.62491523 -6.00863886 16.61006839 -9.4375 14.5 C-11.63828902 10.97873756 -11.80414661 8.04560357 -11 4 C-8.1553332 -0.55146687 -5.11689336 -0.71816047 0 0 Z " fill="#FAFAFC" transform="translate(61,128)"/>
<path d="M0 0 C3.38121991 2.44598887 4.76936783 3.89296559 5.625 8 C4.76936783 12.10703441 3.38121991 13.55401113 0 16 C-3.95779649 16.62491523 -6.00863886 16.61006839 -9.4375 14.5 C-11.63828902 10.97873756 -11.80414661 8.04560357 -11 4 C-8.16650967 -0.53358453 -5.10426635 -0.80593679 0 0 Z " fill="#EEEEF4" transform="translate(160,227)"/>
<path d="M0 0 C3.38121991 2.44598887 4.76936783 3.89296559 5.625 8 C4.76936783 12.10703441 3.38121991 13.55401113 0 16 C-3.95779649 16.62491523 -6.00863886 16.61006839 -9.4375 14.5 C-11.63828902 10.97873756 -11.80414661 8.04560357 -11 4 C-8.16650967 -0.53358453 -5.10426635 -0.80593679 0 0 Z " fill="#EEEEF4" transform="translate(61,227)"/>
<path d="M0 0 C3.38121991 2.44598887 4.76936783 3.89296559 5.625 8 C4.76936783 12.10703441 3.38121991 13.55401113 0 16 C-3.95779649 16.62491523 -6.00863886 16.61006839 -9.4375 14.5 C-11.63828902 10.97873756 -11.80414661 8.04560357 -11 4 C-8.16650967 -0.53358453 -5.10426635 -0.80593679 0 0 Z " fill="#FBFBFC" transform="translate(160,194)"/>
<path d="M0 0 C3.38121991 2.44598887 4.76936783 3.89296559 5.625 8 C4.76936783 12.10703441 3.38121991 13.55401113 0 16 C-3.95779649 16.62491523 -6.00863886 16.61006839 -9.4375 14.5 C-11.63828902 10.97873756 -11.80414661 8.04560357 -11 4 C-8.16650967 -0.53358453 -5.10426635 -0.80593679 0 0 Z " fill="#FBFBFC" transform="translate(61,194)"/>
<path d="M0 0 C3.38121991 2.44598887 4.76936783 3.89296559 5.625 8 C4.76936783 12.10703441 3.38121991 13.55401113 0 16 C-3.95779649 16.62491523 -6.00863886 16.61006839 -9.4375 14.5 C-11.63828902 10.97873756 -11.80414661 8.04560357 -11 4 C-8.16650967 -0.53358453 -5.10426635 -0.80593679 0 0 Z " fill="#EEEEF4" transform="translate(160,161)"/>
<path d="M0 0 C3.38121991 2.44598887 4.76936783 3.89296559 5.625 8 C4.76936783 12.10703441 3.38121991 13.55401113 0 16 C-3.95779649 16.62491523 -6.00863886 16.61006839 -9.4375 14.5 C-11.63828902 10.97873756 -11.80414661 8.04560357 -11 4 C-8.16650967 -0.53358453 -5.10426635 -0.80593679 0 0 Z " fill="#EEEEF4" transform="translate(61,161)"/>
</svg>
