<?xml version="1.0" encoding="UTF-8"?>
<svg version="1.1" xmlns="http://www.w3.org/2000/svg" width="512" height="512">
<path d="M0 0 C5.96654952 5.39987237 11.34799873 11.46098779 15.50634766 18.36328125 C15.50634766 19.35328125 15.50634766 20.34328125 15.50634766 21.36328125 C13.55712891 22.73046875 13.55712891 22.73046875 10.81884766 24.23828125 C-0.40708027 31.10420362 -9.19374344 40.85683607 -15.49365234 52.36328125 C-15.95126953 53.12511719 -16.40888672 53.88695312 -16.88037109 54.671875 C-26.03040745 70.96608388 -26.88240992 91.45625237 -22.40087891 109.28540039 C-19.1780302 120.72867266 -13.44604724 130.54615992 -5.49365234 139.36328125 C-4.90197266 140.04777344 -4.31029297 140.73226562 -3.70068359 141.4375 C3.95735599 149.74867729 14.31838151 155.67681682 24.50634766 160.36328125 C20.37690278 183.48817256 7.61119502 206.00475106 -6.24560547 224.68017578 C-7.44603303 226.29906225 -8.61891392 227.93826472 -9.79052734 229.578125 C-20.99868413 245.0191495 -34.57539519 260.96940551 -54.16162109 265.078125 C-68.93560439 266.88465897 -81.49091492 263.60802718 -94.93115234 257.80078125 C-115.92154983 248.81305522 -134.78224473 250.7150466 -155.55224609 258.95703125 C-158.04515129 259.95631753 -160.51962033 260.98475655 -162.99365234 262.03125 C-174.68185303 266.47954959 -188.40508705 267.61214115 -200.36865234 263.48828125 C-213.5851563 257.5543407 -224.15827703 246.85382822 -232.74365234 235.42578125 C-233.30084961 234.68851807 -233.85804688 233.95125488 -234.43212891 233.19165039 C-269.6398902 186.26965242 -291.72030754 127.81206775 -283.66625977 68.40039062 C-278.94541843 40.05613921 -264.95381105 12.69916267 -241.30615234 -4.26171875 C-220.87572404 -18.14397131 -197.55684781 -24.61905411 -173.06396484 -19.98828125 C-161.68194343 -17.22516246 -150.80666933 -12.75694168 -139.9128418 -8.51293945 C-127.76096472 -4.11157839 -117.51187073 -7.95543937 -106.05615234 -12.44921875 C-103.20682713 -13.54847857 -100.35366625 -14.63724038 -97.49755859 -15.71875 C-96.81166656 -15.9791658 -96.12577454 -16.2395816 -95.4190979 -16.50788879 C-63.08085006 -28.5724551 -26.34347255 -22.58725816 0 0 Z " fill="#424242" transform="translate(386.49365234375,178.63671875)"/>
<path d="M0 0 C4.82261254 9.64522508 0.87582578 26.98439183 -2.26806641 36.90136719 C-10.46023603 60.39032317 -26.20477787 78.4673693 -48.625 89.3125 C-59.90657368 94.26055863 -69.84365597 94.23604552 -82 94 C-82.93138912 67.8602061 -77.03152674 47.13450663 -59.54296875 27.19921875 C-46.32760902 13.20989945 -27.14030111 2.05036086 -7.6875 0.375 C-6.86636719 0.30023438 -6.04523438 0.22546875 -5.19921875 0.1484375 C-3.46937547 0.03168076 -1.73377909 0 0 0 Z " fill="#424242" transform="translate(333,67)"/>
</svg>
